<svg id="Vector_Smart_Object_copy" data-name="Vector Smart Object copy" xmlns="http://www.w3.org/2000/svg" width="250.079" height="32.551" viewBox="0 0 250.079 32.551">
  <g id="Group_39765" data-name="Group 39765" transform="translate(0 0)">
    <path id="Path_1" data-name="Path 1" d="M73.331,598.884H54.664a3.8,3.8,0,0,0,0,7.593h9.518L48.861,621.826a3.793,3.793,0,0,0,5.359,5.37l15.321-15.349v9.534a3.79,3.79,0,1,0,7.58,0v-18.7a3.793,3.793,0,0,0-3.79-3.8" transform="translate(-47.75 -595.757)" fill="#fff"/>
    <path id="Path_2" data-name="Path 2" d="M110,622.791H128.67a3.8,3.8,0,0,0,0-7.593h-9.517l15.321-15.348a3.793,3.793,0,0,0-5.36-5.369l-15.321,15.348v-9.535a3.79,3.79,0,1,0-7.58,0v18.7a3.793,3.793,0,0,0,3.79,3.8" transform="translate(-73.052 -593.368)" fill="#ff8300"/>
  </g>
  <g id="Group_39216" data-name="Group 39216" transform="translate(68.335 4.244)">
    <path id="Path_3" data-name="Path 3" d="M181.037,598.907c6.094,0,9.68,4.558,9.68,10.415,0,5.692-3.586,10.25-9.68,10.25s-9.681-4.559-9.681-10.25c0-5.857,3.585-10.415,9.681-10.415m0,17.018c3.888,0,5.35-3.316,5.35-6.6,0-3.453-1.462-6.768-5.35-6.768s-5.351,3.315-5.351,6.768c0,3.288,1.462,6.6,5.351,6.6" transform="translate(-171.356 -598.907)" fill="#fff"/>
    <path id="Path_4" data-name="Path 4" d="M192.6,604.83h3.723v2.652h.055a5.043,5.043,0,0,1,4.551-3.039,2.931,2.931,0,0,1,.855.138v3.647a7.147,7.147,0,0,0-1.407-.138c-2.868,0-3.86,2.072-3.86,4.586v6.437H192.6Z" transform="translate(-171.397 -598.918)" fill="#fff"/>
    <path id="Path_5" data-name="Path 5" d="M202.485,609.223c.221-3.674,3.5-4.78,6.7-4.78,2.841,0,6.26.635,6.26,4.062v7.432a7.327,7.327,0,0,0,.5,3.177h-3.971a5.8,5.8,0,0,1-.276-1.381,6.534,6.534,0,0,1-4.8,1.768c-2.7,0-4.854-1.354-4.854-4.282,0-3.233,2.427-4.006,4.854-4.338,2.4-.359,4.634-.276,4.634-1.878,0-1.685-1.159-1.934-2.537-1.934-1.49,0-2.454.607-2.592,2.155Zm9.046,2.9c-.662.58-2.042.608-3.254.829-1.213.249-2.317.663-2.317,2.1,0,1.465,1.131,1.824,2.4,1.824a2.914,2.914,0,0,0,3.172-3.287Z" transform="translate(-171.415 -598.918)" fill="#fff"/>
    <path id="Path_6" data-name="Path 6" d="M217.771,604.83h3.723v1.989h.084a5.081,5.081,0,0,1,4.356-2.376c4.165,0,5.213,2.348,5.213,5.885v8.785H227.23v-8.067c0-2.348-.689-3.509-2.51-3.509-2.123,0-3.033,1.188-3.033,4.089v7.487h-3.916Z" transform="translate(-171.446 -598.918)" fill="#fff"/>
    <path id="Path_7" data-name="Path 7" d="M246.939,618.2c0,2.348-.828,6.326-7.391,6.326-2.813,0-6.095-1.326-6.288-4.586h3.888c.359,1.464,1.545,1.961,2.923,1.961,2.179,0,3.172-1.492,3.144-3.537v-1.879h-.055a4.814,4.814,0,0,1-4.274,2.211c-4.274,0-6.095-3.26-6.095-7.184,0-3.7,2.123-7.072,6.123-7.072a4.434,4.434,0,0,1,4.246,2.293h.055V604.83h3.723Zm-3.723-6.409c0-2.321-.8-4.393-3.337-4.393-2.206,0-3.172,1.934-3.172,4.061,0,2.044.773,4.283,3.172,4.283,2.234,0,3.337-1.907,3.337-3.95" transform="translate(-171.475 -598.918)" fill="#fff"/>
    <path id="Path_8" data-name="Path 8" d="M252.514,612.925c.111,2.487,1.324,3.619,3.5,3.619a3.224,3.224,0,0,0,3.089-1.851h3.448a6.415,6.415,0,0,1-6.674,4.807c-4.5,0-7.281-3.094-7.281-7.516,0-4.282,2.951-7.542,7.281-7.542,4.854,0,7.2,4.089,6.922,8.482Zm6.371-2.487c-.359-1.989-1.213-3.039-3.117-3.039a3.09,3.09,0,0,0-3.254,3.039Z" transform="translate(-171.505 -598.918)" fill="#fff"/>
    <path id="Path_9" data-name="Path 9" d="M171.357,625.476h6.095l4.606,13.565h.055l4.357-13.565h6.095V645.2h-4.054V631.222h-.055L183.629,645.2h-3.336l-4.826-13.841h-.056V645.2h-4.054Z" transform="translate(-72.367 -624.79)" fill="#fff"/>
    <path id="Path_10" data-name="Path 10" d="M201.7,630.542c4.5,0,7.391,2.984,7.391,7.543,0,4.53-2.9,7.515-7.391,7.515-4.468,0-7.363-2.984-7.363-7.515,0-4.558,2.9-7.543,7.363-7.543m0,12.1c2.675,0,3.475-2.293,3.475-4.558,0-2.294-.8-4.586-3.475-4.586-2.648,0-3.447,2.293-3.447,4.586,0,2.265.8,4.558,3.447,4.558" transform="translate(-72.412 -624.8)" fill="#fff"/>
    <path id="Path_11" data-name="Path 11" d="M210.8,630.928h3.723v1.989h.083a5.084,5.084,0,0,1,4.357-2.376c4.165,0,5.213,2.349,5.213,5.885v8.786h-3.917v-8.067c0-2.348-.689-3.509-2.509-3.509-2.124,0-3.033,1.188-3.033,4.089v7.487H210.8Z" transform="translate(-72.444 -624.8)" fill="#fff"/>
    <path id="Path_12" data-name="Path 12" d="M229.629,639.024c.11,2.486,1.324,3.619,3.5,3.619a3.225,3.225,0,0,0,3.089-1.851h3.448a6.417,6.417,0,0,1-6.675,4.808c-4.5,0-7.281-3.1-7.281-7.516,0-4.281,2.951-7.541,7.281-7.541,4.854,0,7.2,4.089,6.922,8.482ZM236,636.537c-.359-1.989-1.214-3.039-3.117-3.039a3.089,3.089,0,0,0-3.254,3.039Z" transform="translate(-72.472 -624.8)" fill="#fff"/>
    <path id="Path_13" data-name="Path 13" d="M248.287,647.008c-.855,2.293-2.206,3.233-4.909,3.233a23.333,23.333,0,0,1-2.4-.138V646.87a20.688,20.688,0,0,0,2.289.138,1.849,1.849,0,0,0,1.351-2.679l-5.019-13.4h4.192l3.227,9.78h.055l3.116-9.78h4.054Z" transform="translate(-72.499 -624.801)" fill="#fff"/>
  </g>
</svg>
